<svg xmlns="http://www.w3.org/2000/svg" version="1.1" xmlns:xlink="http://www.w3.org/1999/xlink" xmlns:svgjs="http://svgjs.dev/svgjs" width="1000" height="1000" viewBox="0 0 1000 1000"><g transform="matrix(1,0,0,1,-0.14221556886212738,-0.14221556886229791)"><svg viewBox="0 0 334 334" data-background-color="#ffffff" preserveAspectRatio="xMidYMid meet" height="1000" width="1000" xmlns="http://www.w3.org/2000/svg" xmlns:xlink="http://www.w3.org/1999/xlink"><g id="tight-bounds" transform="matrix(1,0,0,1,0.04749999999998522,0.04750000000001364)"><svg viewBox="0 0 333.90454557049503 333.90454557049503" height="333.90454557049503" width="333.90454557049503"><g><svg></svg></g><g><svg viewBox="0 0 333.90454557049503 333.90454557049503" height="333.90454557049503" width="333.90454557049503"><g><path d="M0 166.952c0-92.205 74.747-166.952 166.952-166.952 92.205 0 166.952 74.747 166.953 166.952 0 92.205-74.747 166.952-166.953 166.953-92.205 0-166.952-74.747-166.952-166.953zM166.952 316.63c82.665 0 149.677-67.013 149.678-149.678 0-82.665-67.013-149.677-149.678-149.677-82.665 0-149.677 67.013-149.677 149.677 0 82.665 67.013 149.677 149.677 149.678z" data-fill-palette-color="tertiary" fill="#ee3e38" stroke="transparent"></path><ellipse rx="160.27418187383762" ry="160.27418187383762" cx="166.95227278524752" cy="166.95227278524752" fill="#ee3e38" stroke="transparent" stroke-width="0" fill-opacity="1" data-fill-palette-color="tertiary"></ellipse></g><g transform="matrix(1,0,0,1,91.37371013036032,71.17305217166896)"><svg viewBox="0 0 151.1571253097744 191.55844122715712" height="191.55844122715712" width="151.1571253097744"><g><svg viewBox="0 0 151.1571253097744 191.55844122715712" height="191.55844122715712" width="151.1571253097744"><g><svg viewBox="0 0 151.1571253097744 191.55844122715712" height="191.55844122715712" width="151.1571253097744"><g><svg viewBox="0 0 151.1571253097744 191.55844122715712" height="191.55844122715712" width="151.1571253097744"><g id="textblocktransform"><svg viewBox="0 0 151.1571253097744 191.55844122715712" height="191.55844122715712" width="151.1571253097744" id="textblock"><g><svg viewBox="0 0 151.1571253097744 191.55844122715712" height="191.55844122715712" width="151.1571253097744"><g transform="matrix(1,0,0,1,0,0)"><svg width="151.1571253097744" viewBox="2.0944442749023438 -26.5 21.30555534362793 27" height="191.55844122715712" data-palette-color="#ffffff"><path d="M12.7 0.5L12.7 0.5Q9.9 0.5 7.9-0.2 5.9-0.9 4.65-1.9 3.4-2.9 2.78-3.9 2.15-4.9 2.1-5.5L2.1-5.5Q2.05-6.05 2.45-6.35 2.85-6.65 3.25-6.65L3.25-6.65 5.5-6.65Q5.75-6.65 5.93-6.58 6.1-6.5 6.4-6.15L6.4-6.15Q7.05-5.45 7.85-4.75 8.65-4.05 9.83-3.6 11-3.15 12.75-3.15L12.75-3.15Q15.3-3.15 16.95-4.13 18.6-5.1 18.6-7L18.6-7Q18.6-8.25 17.93-9 17.25-9.75 15.53-10.35 13.8-10.95 10.8-11.6L10.8-11.6Q7.8-12.3 6.05-13.33 4.3-14.35 3.55-15.78 2.8-17.2 2.8-19L2.8-19Q2.8-20.85 3.9-22.58 5-24.3 7.13-25.4 9.25-26.5 12.45-26.5L12.45-26.5Q15.05-26.5 16.9-25.85 18.75-25.2 19.95-24.23 21.15-23.25 21.75-22.3 22.35-21.35 22.4-20.7L22.4-20.7Q22.45-20.2 22.1-19.88 21.75-19.55 21.3-19.55L21.3-19.55 19.2-19.55Q18.85-19.55 18.63-19.7 18.4-19.85 18.2-20.05L18.2-20.05Q17.7-20.7 17.03-21.35 16.35-22 15.28-22.43 14.2-22.85 12.45-22.85L12.45-22.85Q9.95-22.85 8.7-21.8 7.45-20.75 7.45-19.15L7.45-19.15Q7.45-18.2 8-17.45 8.55-16.7 10.1-16.1 11.65-15.5 14.7-14.8L14.7-14.8Q18-14.15 19.9-13.05 21.8-11.95 22.6-10.5 23.4-9.05 23.4-7.15L23.4-7.15Q23.4-5.05 22.2-3.3 21-1.55 18.6-0.53 16.2 0.5 12.7 0.5Z" opacity="1" transform="matrix(1,0,0,1,0,0)" fill="#ffffff" class="undefined-text-0" data-fill-palette-color="quaternary" id="text-0"></path></svg></g></svg></g></svg></g></svg></g><g></g></svg></g></svg></g></svg></g></svg></g><defs></defs></svg><rect width="333.90454557049503" height="333.90454557049503" fill="none" stroke="none" visibility="hidden"></rect></g></svg></g></svg>